<mxfile host="Electron" agent="Mozilla/5.0 (Windows NT 10.0; Win64; x64) AppleWebKit/537.36 (KHTML, like Gecko) draw.io/28.1.2 Chrome/138.0.7204.243 Electron/37.4.0 Safari/537.36" version="28.1.2">
  <diagram id="-HaWD-yV29sZ_Kb4N8Im" name="ページ1">
    <mxGraphModel dx="786" dy="516" grid="0" gridSize="10" guides="1" tooltips="1" connect="1" arrows="1" fold="1" page="1" pageScale="1" pageWidth="827" pageHeight="1169" math="0" shadow="0">
      <root>
        <mxCell id="0" />
        <mxCell id="1" parent="0" />
        <mxCell id="O7e_v-wIYK2P1H9KMyQ7-1" value="メニュー画面" style="shape=umlBoundary;whiteSpace=wrap;html=1;fillColor=#d5e8d4;strokeColor=#82b366;" vertex="1" parent="1">
          <mxGeometry x="191" y="369" width="100" height="80" as="geometry" />
        </mxCell>
        <mxCell id="O7e_v-wIYK2P1H9KMyQ7-2" value="学生登録画面" style="shape=umlBoundary;whiteSpace=wrap;html=1;fillColor=#d5e8d4;strokeColor=#82b366;" vertex="1" parent="1">
          <mxGeometry x="342" y="374" width="100" height="80" as="geometry" />
        </mxCell>
        <mxCell id="O7e_v-wIYK2P1H9KMyQ7-3" value="学生情報登録" style="ellipse;shape=umlControl;whiteSpace=wrap;html=1;fillColor=#f8cecc;strokeColor=#b85450;" vertex="1" parent="1">
          <mxGeometry x="492" y="374" width="77" height="80" as="geometry" />
        </mxCell>
        <mxCell id="O7e_v-wIYK2P1H9KMyQ7-4" value="学生オブジェクト" style="ellipse;shape=umlEntity;whiteSpace=wrap;html=1;fillColor=#dae8fc;strokeColor=#6c8ebf;" vertex="1" parent="1">
          <mxGeometry x="626" y="374" width="80" height="80" as="geometry" />
        </mxCell>
        <mxCell id="O7e_v-wIYK2P1H9KMyQ7-5" value="Actor" style="shape=umlActor;verticalLabelPosition=bottom;verticalAlign=top;html=1;" vertex="1" parent="1">
          <mxGeometry x="55" y="384" width="30" height="60" as="geometry" />
        </mxCell>
        <mxCell id="O7e_v-wIYK2P1H9KMyQ7-7" value="" style="endArrow=none;dashed=1;html=1;dashPattern=1 3;strokeWidth=2;rounded=0;entryX=0.603;entryY=0.987;entryDx=0;entryDy=0;entryPerimeter=0;" edge="1" parent="1" source="O7e_v-wIYK2P1H9KMyQ7-19">
          <mxGeometry width="50" height="50" relative="1" as="geometry">
            <mxPoint x="403" y="689" as="sourcePoint" />
            <mxPoint x="403" y="454" as="targetPoint" />
          </mxGeometry>
        </mxCell>
        <mxCell id="O7e_v-wIYK2P1H9KMyQ7-8" value="" style="endArrow=none;dashed=1;html=1;dashPattern=1 3;strokeWidth=2;rounded=0;entryX=0.603;entryY=0.987;entryDx=0;entryDy=0;entryPerimeter=0;" edge="1" parent="1" source="O7e_v-wIYK2P1H9KMyQ7-28">
          <mxGeometry width="50" height="50" relative="1" as="geometry">
            <mxPoint x="538" y="936" as="sourcePoint" />
            <mxPoint x="538" y="454" as="targetPoint" />
          </mxGeometry>
        </mxCell>
        <mxCell id="O7e_v-wIYK2P1H9KMyQ7-9" value="" style="endArrow=none;dashed=1;html=1;dashPattern=1 3;strokeWidth=2;rounded=0;entryX=0.603;entryY=0.987;entryDx=0;entryDy=0;entryPerimeter=0;" edge="1" parent="1" source="O7e_v-wIYK2P1H9KMyQ7-30">
          <mxGeometry width="50" height="50" relative="1" as="geometry">
            <mxPoint x="662" y="938" as="sourcePoint" />
            <mxPoint x="665.5" y="454" as="targetPoint" />
          </mxGeometry>
        </mxCell>
        <mxCell id="O7e_v-wIYK2P1H9KMyQ7-10" value="" style="endArrow=none;dashed=1;html=1;dashPattern=1 3;strokeWidth=2;rounded=0;" edge="1" parent="1" source="O7e_v-wIYK2P1H9KMyQ7-11">
          <mxGeometry width="50" height="50" relative="1" as="geometry">
            <mxPoint x="65" y="745" as="sourcePoint" />
            <mxPoint x="69" y="466" as="targetPoint" />
          </mxGeometry>
        </mxCell>
        <mxCell id="O7e_v-wIYK2P1H9KMyQ7-12" value="" style="endArrow=none;dashed=1;html=1;dashPattern=1 3;strokeWidth=2;rounded=0;" edge="1" parent="1" target="O7e_v-wIYK2P1H9KMyQ7-11">
          <mxGeometry width="50" height="50" relative="1" as="geometry">
            <mxPoint x="65" y="953" as="sourcePoint" />
            <mxPoint x="69" y="466" as="targetPoint" />
          </mxGeometry>
        </mxCell>
        <mxCell id="O7e_v-wIYK2P1H9KMyQ7-11" value="" style="rounded=0;whiteSpace=wrap;html=1;rotation=90;" vertex="1" parent="1">
          <mxGeometry x="-14.5" y="567.5" width="162" height="17" as="geometry" />
        </mxCell>
        <mxCell id="O7e_v-wIYK2P1H9KMyQ7-14" value="" style="endArrow=none;dashed=1;html=1;dashPattern=1 3;strokeWidth=2;rounded=0;entryX=0.583;entryY=0.996;entryDx=0;entryDy=0;entryPerimeter=0;" edge="1" parent="1" target="O7e_v-wIYK2P1H9KMyQ7-1">
          <mxGeometry width="50" height="50" relative="1" as="geometry">
            <mxPoint x="249" y="949" as="sourcePoint" />
            <mxPoint x="271.00000000000006" y="460.99999999999994" as="targetPoint" />
          </mxGeometry>
        </mxCell>
        <mxCell id="O7e_v-wIYK2P1H9KMyQ7-13" value="" style="rounded=0;whiteSpace=wrap;html=1;rotation=90;" vertex="1" parent="1">
          <mxGeometry x="191" y="547" width="121" height="17" as="geometry" />
        </mxCell>
        <mxCell id="O7e_v-wIYK2P1H9KMyQ7-16" value="" style="endArrow=classic;html=1;rounded=0;exitX=0;exitY=0;exitDx=0;exitDy=0;entryX=0;entryY=1;entryDx=0;entryDy=0;" edge="1" parent="1" source="O7e_v-wIYK2P1H9KMyQ7-11" target="O7e_v-wIYK2P1H9KMyQ7-13">
          <mxGeometry width="50" height="50" relative="1" as="geometry">
            <mxPoint x="380" y="581" as="sourcePoint" />
            <mxPoint x="236" y="515" as="targetPoint" />
          </mxGeometry>
        </mxCell>
        <mxCell id="O7e_v-wIYK2P1H9KMyQ7-17" value="学生登録を選択（する）" style="text;html=1;align=center;verticalAlign=middle;whiteSpace=wrap;rounded=0;" vertex="1" parent="1">
          <mxGeometry x="91" y="466" width="136" height="30" as="geometry" />
        </mxCell>
        <mxCell id="O7e_v-wIYK2P1H9KMyQ7-22" value="" style="endArrow=none;dashed=1;html=1;dashPattern=1 3;strokeWidth=2;rounded=0;entryX=1;entryY=0.5;entryDx=0;entryDy=0;" edge="1" parent="1" source="O7e_v-wIYK2P1H9KMyQ7-26" target="O7e_v-wIYK2P1H9KMyQ7-19">
          <mxGeometry width="50" height="50" relative="1" as="geometry">
            <mxPoint x="403" y="941" as="sourcePoint" />
            <mxPoint x="403" y="454" as="targetPoint" />
          </mxGeometry>
        </mxCell>
        <mxCell id="O7e_v-wIYK2P1H9KMyQ7-19" value="" style="rounded=0;whiteSpace=wrap;html=1;rotation=90;" vertex="1" parent="1">
          <mxGeometry x="363" y="525" width="79" height="17" as="geometry" />
        </mxCell>
        <mxCell id="O7e_v-wIYK2P1H9KMyQ7-23" value="" style="endArrow=classic;html=1;rounded=0;exitX=0;exitY=0;exitDx=0;exitDy=0;entryX=0;entryY=1;entryDx=0;entryDy=0;" edge="1" parent="1" source="O7e_v-wIYK2P1H9KMyQ7-13" target="O7e_v-wIYK2P1H9KMyQ7-19">
          <mxGeometry width="50" height="50" relative="1" as="geometry">
            <mxPoint x="380" y="581" as="sourcePoint" />
            <mxPoint x="430" y="531" as="targetPoint" />
          </mxGeometry>
        </mxCell>
        <mxCell id="O7e_v-wIYK2P1H9KMyQ7-24" value="表示（）" style="text;html=1;align=center;verticalAlign=middle;whiteSpace=wrap;rounded=0;" vertex="1" parent="1">
          <mxGeometry x="293" y="466" width="60" height="30" as="geometry" />
        </mxCell>
        <mxCell id="O7e_v-wIYK2P1H9KMyQ7-25" value="" style="rounded=0;whiteSpace=wrap;html=1;rotation=90;" vertex="1" parent="1">
          <mxGeometry x="-14.499999999999993" y="809" width="162" height="17" as="geometry" />
        </mxCell>
        <mxCell id="O7e_v-wIYK2P1H9KMyQ7-27" value="" style="endArrow=none;dashed=1;html=1;dashPattern=1 3;strokeWidth=2;rounded=0;entryX=1;entryY=0.5;entryDx=0;entryDy=0;" edge="1" parent="1" target="O7e_v-wIYK2P1H9KMyQ7-26">
          <mxGeometry width="50" height="50" relative="1" as="geometry">
            <mxPoint x="403" y="941" as="sourcePoint" />
            <mxPoint x="403" y="581" as="targetPoint" />
          </mxGeometry>
        </mxCell>
        <mxCell id="O7e_v-wIYK2P1H9KMyQ7-26" value="" style="rounded=0;whiteSpace=wrap;html=1;rotation=90;" vertex="1" parent="1">
          <mxGeometry x="334.5" y="799" width="136" height="17" as="geometry" />
        </mxCell>
        <mxCell id="O7e_v-wIYK2P1H9KMyQ7-29" value="" style="endArrow=none;dashed=1;html=1;dashPattern=1 3;strokeWidth=2;rounded=0;entryX=1;entryY=0.5;entryDx=0;entryDy=0;" edge="1" parent="1" target="O7e_v-wIYK2P1H9KMyQ7-28">
          <mxGeometry width="50" height="50" relative="1" as="geometry">
            <mxPoint x="538" y="936" as="sourcePoint" />
            <mxPoint x="538" y="454" as="targetPoint" />
          </mxGeometry>
        </mxCell>
        <mxCell id="O7e_v-wIYK2P1H9KMyQ7-28" value="" style="rounded=0;whiteSpace=wrap;html=1;rotation=90;" vertex="1" parent="1">
          <mxGeometry x="500" y="786" width="79" height="17" as="geometry" />
        </mxCell>
        <mxCell id="O7e_v-wIYK2P1H9KMyQ7-31" value="" style="endArrow=none;dashed=1;html=1;dashPattern=1 3;strokeWidth=2;rounded=0;entryX=1;entryY=0.5;entryDx=0;entryDy=0;" edge="1" parent="1" target="O7e_v-wIYK2P1H9KMyQ7-30">
          <mxGeometry width="50" height="50" relative="1" as="geometry">
            <mxPoint x="666" y="935" as="sourcePoint" />
            <mxPoint x="665.5" y="454" as="targetPoint" />
          </mxGeometry>
        </mxCell>
        <mxCell id="O7e_v-wIYK2P1H9KMyQ7-30" value="" style="rounded=0;whiteSpace=wrap;html=1;rotation=90;" vertex="1" parent="1">
          <mxGeometry x="636.5" y="806" width="59" height="17" as="geometry" />
        </mxCell>
        <mxCell id="O7e_v-wIYK2P1H9KMyQ7-32" value="" style="endArrow=classic;html=1;rounded=0;exitX=0;exitY=0;exitDx=0;exitDy=0;entryX=0;entryY=1;entryDx=0;entryDy=0;" edge="1" parent="1" source="O7e_v-wIYK2P1H9KMyQ7-25" target="O7e_v-wIYK2P1H9KMyQ7-26">
          <mxGeometry width="50" height="50" relative="1" as="geometry">
            <mxPoint x="367" y="781" as="sourcePoint" />
            <mxPoint x="417" y="731" as="targetPoint" />
          </mxGeometry>
        </mxCell>
        <mxCell id="O7e_v-wIYK2P1H9KMyQ7-33" value="" style="endArrow=classic;html=1;rounded=0;exitX=0.131;exitY=0.137;exitDx=0;exitDy=0;entryX=0;entryY=0.75;entryDx=0;entryDy=0;exitPerimeter=0;" edge="1" parent="1" source="O7e_v-wIYK2P1H9KMyQ7-26" target="O7e_v-wIYK2P1H9KMyQ7-28">
          <mxGeometry width="50" height="50" relative="1" as="geometry">
            <mxPoint x="412" y="757" as="sourcePoint" />
            <mxPoint x="731" y="760" as="targetPoint" />
          </mxGeometry>
        </mxCell>
        <mxCell id="O7e_v-wIYK2P1H9KMyQ7-34" value="" style="endArrow=classic;html=1;rounded=0;exitX=0.367;exitY=-0.078;exitDx=0;exitDy=0;entryX=0;entryY=1;entryDx=0;entryDy=0;exitPerimeter=0;" edge="1" parent="1" source="O7e_v-wIYK2P1H9KMyQ7-28" target="O7e_v-wIYK2P1H9KMyQ7-30">
          <mxGeometry width="50" height="50" relative="1" as="geometry">
            <mxPoint x="602" y="741" as="sourcePoint" />
            <mxPoint x="921" y="744" as="targetPoint" />
          </mxGeometry>
        </mxCell>
        <mxCell id="O7e_v-wIYK2P1H9KMyQ7-35" value="学生データ入力（）" style="text;html=1;align=center;verticalAlign=middle;whiteSpace=wrap;rounded=0;" vertex="1" parent="1">
          <mxGeometry x="85" y="694" width="152" height="32" as="geometry" />
        </mxCell>
        <mxCell id="O7e_v-wIYK2P1H9KMyQ7-36" value="起動" style="text;html=1;align=center;verticalAlign=middle;whiteSpace=wrap;rounded=0;" vertex="1" parent="1">
          <mxGeometry x="394" y="719" width="152" height="32" as="geometry" />
        </mxCell>
        <mxCell id="O7e_v-wIYK2P1H9KMyQ7-37" value="学生データ登録（）" style="text;html=1;align=center;verticalAlign=middle;whiteSpace=wrap;rounded=0;" vertex="1" parent="1">
          <mxGeometry x="544" y="736" width="133" height="32" as="geometry" />
        </mxCell>
      </root>
    </mxGraphModel>
  </diagram>
</mxfile>
